# xmcd
#
# Track frame offsets: 
#        150
#        15095
#        34582
#        57005
#        68520
#        92840
#        116195
#        140232
#        158600
#        180955
#        204170
#
# Disc length: 3008 seconds
#
# Revision: 4
# Processed by: cddbd v1.5.2PL0 Copyright (c) Steve Scherf et al.
# Submitted via: ExactAudioCopy v1.0b3
#
DISCID=800bbe0b,840bbe0b
DTITLE=Indigenous - Circle
DYEAR=2000
DGENRE=Blues Rock
TTITLE0=Little Time
TTITLE1=Can't Keep Me From You
TTITLE2=You Left Me This Mornin'
TTITLE3=Evolution Revolution
TTITLE4=You Were The One
TTITLE5=Stay With Me
TTITLE6=Seven Steps Away
TTITLE7=Remember
TTITLE8=Rest of my Days
TTITLE9=Waiting for You
TTITLE10=The Moon is Shining
EXTD=
EXTT0=
EXTT1=
EXTT2=
EXTT3=
EXTT4=
EXTT5=
EXTT6=
EXTT7=
EXTT8=
EXTT9=
EXTT10=
PLAYORDER=
